# xmcd
#
# Track frame offsets:
#	150
#	12419
#	32062
#	57463
#	75717
#	93262
#	107089
#	116702
#	128309
#	141062
#	153001
#	174311
#	187812
#	207492
#	219174
#	234626
#
# Disc length: 3330 seconds
# Revision: 0
# Processed by: cddbd v1.5.2PL0 Copyright (c) Steve Scherf et al.
# Submitted via: dBpowerAMP V12.0
#
DISCID=c90d0010
DTITLE=Leroy's Layabouts - Smokin'
DYEAR=2013
DGENRE=Rhythm and Blues
TTITLE0=Stuck! (Road Rage Rock)
TTITLE1=Smokin' In Bed
TTITLE2=Computer Rage Blues
TTITLE3=Cry To Me
TTITLE4=Come On
TTITLE5=Your Cash Ain't Nothin' But Trash
TTITLE6=Boogie Woogie Fever
TTITLE7=That Mellow Saxophone
TTITLE8=I'll Do The Same
TTITLE9=Gonna Ball (Like I Never Did Ball Before)
TTITLE10=Down In Mexico
TTITLE11=Gangster Of Love
TTITLE12=Caldonia
TTITLE13=Oriental Rock
TTITLE14=Let The Good Times Roll
TTITLE15=Unstoned Blues
EXTD=
EXTT0=
EXTT1=
EXTT2=
EXTT3=
EXTT4=
EXTT5=
EXTT6=
EXTT7=
EXTT8=
EXTT9=
EXTT10=
EXTT11=
EXTT12=
EXTT13=
EXTT14=
EXTT15=
PLAYORDER=
